<svg width="24" height="24" viewBox="0 0 24 24" fill="none" xmlns="http://www.w3.org/2000/svg">
<path d="M4.26717 1.03774V4.99249L6.44376 7.69061V8.44839L11.0811 10.517L12.3603 8.90894L15.4494 9.09691V7.69066L17.6259 4.99244V1.0376H15.333V2.90304H13.9373V1.03774H11.6194V2.90308H10.2487V1.03774H7.93078V2.90308H6.56001V1.03774H4.26717ZM6.44376 9.4076V18.5562H5.04314L4.02164 22.995H17.8715L16.8501 18.5562H15.4493V17.3446L13.6343 16.2163L12.5228 17.5894L13.8556 18.7958L13.2676 19.4452L11.3203 17.6826L12.8845 15.7503L8.58843 13.0797L10.1488 11.0602L6.44381 9.4076H6.44376ZM13.71 10.3034L14.6025 11.9437L16.0559 11.6904L15.2455 10.3034H13.71V10.3034ZM16.8357 10.7763L17.6463 14.2697L20.2504 14.3666L19.6203 11.6494L16.8357 10.7763V10.7763ZM10.4856 12.0573L9.87459 12.8478L11.6274 13.9374L12.479 12.9713L10.4856 12.0572V12.0573ZM13.9128 12.6693L12.3819 14.4063L15.4494 16.3131V13.9781L13.9128 12.6693V12.6693ZM17.9044 15.0948L17.6625 16.4816L19.2324 17.3327L19.228 15.8675L17.9045 15.0948L17.9044 15.0948ZM21.6502 15.4196L20.5687 16.5069L20.9763 18.0588L22.1818 17.2113L21.6502 15.4196H21.6502ZM18.5635 18.6536L18.0493 20.3868L19.2155 21.2067L19.6099 19.7055L18.5635 18.6536H18.5635Z" fill="#F1F5F9"/>
</svg>
