<svg width="24" height="24" viewBox="0 0 24 24" fill="none" xmlns="http://www.w3.org/2000/svg">
<path d="M22.8662 10.5967L21.2476 10.4063L20.0464 11.9385L22.3915 13.0518C22.82 12.2012 22.8469 11.3984 22.8662 10.5967L22.8662 10.5967ZM21.1362 7.81642C20.9989 6.67979 20.3911 5.80314 19.5513 5.05665L19.5513 5.05806L16.6172 9.57714L21.1362 7.81642V7.81642ZM19.8398 14.1035L15.832 14.978L16.9511 10.7081L13.0341 12.6094L17.2236 6.01904C16.9951 5.83314 16.7562 5.65811 16.5073 5.49311C14.4699 4.14339 11.7681 3.52192 9.16109 3.48193C8.24107 5.36265 7.27952 6.47457 6.27537 6.95218C5.37302 7.38142 4.44443 7.20882 3.7324 6.65485C2.63637 7.83676 1.96849 9.87226 1.93502 11.959C1.90141 14.0596 2.50141 16.1765 3.75298 17.5195C4.07815 17.2367 4.42545 17.0315 4.80471 16.9336C5.31331 16.8024 5.86193 16.889 6.36471 17.1768C7.32762 17.7279 8.20516 18.9414 9.16268 20.9297C11.6313 20.8884 14.3299 20.2802 16.4004 18.9375C18.0919 17.8406 19.3729 16.2868 19.8399 14.1035L19.8398 14.1035ZM11.9253 8.51228C11.9253 9.81306 10.8706 10.8677 9.56979 10.8677C8.26901 10.8677 7.21432 9.81306 7.21432 8.51228C7.21432 7.2114 8.26901 6.15681 9.56979 6.15681C10.8706 6.15681 11.9253 7.2114 11.9253 8.51228ZM11.9253 15.5186C11.9253 16.8194 10.8706 17.8741 9.56979 17.8741C8.26901 17.8741 7.21432 16.8194 7.21432 15.5186C7.21432 14.2178 8.26901 13.1631 9.56979 13.1631C10.8706 13.1631 11.9253 14.2178 11.9253 15.5186ZM7.88815 12.0147C6.52854 12.6587 5.16832 13.1702 3.80862 13.4238C3.20416 12.7312 3.11646 11.4898 3.80862 10.6055C5.16832 10.9484 6.52854 11.3611 7.88815 12.0147V12.0147Z" fill="#F1F5F9"/>
</svg>
