<svg width="12" height="12" viewBox="0 0 12 12" fill="none" xmlns="http://www.w3.org/2000/svg">
<path fill-rule="evenodd" clip-rule="evenodd" d="M1.11759e-08 6C1.11759e-08 5.58579 0.335786 5.25 0.75 5.25H11.25C11.6642 5.25 12 5.58579 12 6C12 6.41421 11.6642 6.75 11.25 6.75H0.75C0.335786 6.75 1.11759e-08 6.41421 1.11759e-08 6Z" fill="#CBD5E1"/>
<path fill-rule="evenodd" clip-rule="evenodd" d="M6.53033 0.21967C6.82322 0.512563 6.82322 0.987437 6.53033 1.28033L1.81066 6L6.53033 10.7197C6.82322 11.0126 6.82322 11.4874 6.53033 11.7803C6.23744 12.0732 5.76256 12.0732 5.46967 11.7803L0.21967 6.53033C-0.0732233 6.23744 -0.0732233 5.76256 0.21967 5.46967L5.46967 0.21967C5.76256 -0.0732233 6.23744 -0.0732233 6.53033 0.21967Z" fill="#CBD5E1"/>
</svg>
