<svg width="24" height="24" viewBox="0 0 24 24" fill="none" xmlns="http://www.w3.org/2000/svg">
<path d="M10.5967 1.13384L10.4062 2.75243L11.9385 3.95365L13.0518 1.60849C12.2012 1.17996 11.3984 1.1531 10.5967 1.13379V1.13384ZM7.8164 2.86376C6.67978 3.0011 5.80312 3.60893 5.05664 4.4487H5.05804L9.57712 7.38279L7.8164 2.86376V2.86376ZM14.1035 4.16018L14.978 8.16799L10.7081 7.04885L12.6094 10.9659L6.01903 6.77641C5.83312 7.00493 5.65809 7.24376 5.49309 7.49266C4.14337 9.53009 3.5219 12.2319 3.48192 14.8389C5.36264 15.7589 6.47456 16.7205 6.95217 17.7246C7.3814 18.627 7.20881 19.5556 6.65484 20.2676C7.83675 21.3636 9.87225 22.0315 11.959 22.065C14.0596 22.0986 16.1765 21.4986 17.5195 20.247C17.2367 19.9219 17.0315 19.5746 16.9336 19.1953C16.8023 18.6867 16.889 18.1381 17.1768 17.6353C17.7279 16.6724 18.9414 15.7948 20.9297 14.8373C20.8884 12.3687 20.2802 9.67005 18.9375 7.59959C17.8406 5.9081 16.2868 4.62715 14.1035 4.16013V4.16018ZM8.51226 12.0747C9.81304 12.0747 10.8677 13.1294 10.8677 14.4302C10.8677 15.731 9.81304 16.7857 8.51226 16.7857C7.21139 16.7857 6.15679 15.731 6.15679 14.4302C6.15679 13.1294 7.21139 12.0747 8.51226 12.0747ZM15.5186 12.0747C16.8194 12.0747 17.874 13.1294 17.874 14.4302C17.874 15.731 16.8194 16.7857 15.5186 16.7857C14.2178 16.7857 13.1631 15.731 13.1631 14.4302C13.1631 13.1294 14.2178 12.0747 15.5186 12.0747ZM12.0147 16.1119C12.6587 17.4715 13.1702 18.8317 13.4238 20.1914C12.7312 20.7958 11.4898 20.8835 10.6055 20.1914C10.9484 18.8317 11.3611 17.4715 12.0147 16.1119V16.1119Z" fill="#F1F5F9"/>
</svg>
