<svg width="202" height="128" viewBox="0 0 202 128" fill="none" xmlns="http://www.w3.org/2000/svg">
<g clip-path="url(#clip0_1503_3946)">
<path d="M193.542 123.76C192.643 124.972 191.528 126.007 190.254 126.816C189.983 126.987 189.705 127.149 189.422 127.299H182.761C182.84 127.14 182.918 126.978 182.993 126.816C185.058 122.457 185.706 117.561 184.845 112.816C183.984 108.071 181.657 103.715 178.193 100.36C182.219 101.604 185.94 104.028 188.374 107.466C189.557 109.141 190.398 111.032 190.849 113.031C191.252 109.032 190.612 104.997 188.994 101.318C192.262 103.977 194.808 107.619 195.778 111.717C196.748 115.819 196.044 120.37 193.542 123.76Z" fill="#CBD5E1"/>
<path d="M141.4 3.86938H0.26062V70.8423H141.4V3.86938Z" fill="#E2E8F0"/>
<path d="M137.364 9.61243H4.29654V65.49H137.364V9.61243Z" fill="white"/>
<path d="M141.34 0H0.200439V5.99601H141.34V0Z" fill="#2563EB"/>
<path d="M4.65621 3.88479C5.26999 3.88479 5.76755 3.38722 5.76755 2.77345C5.76755 2.15967 5.26999 1.66211 4.65621 1.66211C4.04244 1.66211 3.54488 2.15967 3.54488 2.77345C3.54488 3.38722 4.04244 3.88479 4.65621 3.88479Z" fill="white"/>
<path d="M8.87449 3.88479C9.48827 3.88479 9.98583 3.38722 9.98583 2.77345C9.98583 2.15967 9.48827 1.66211 8.87449 1.66211C8.26072 1.66211 7.76315 2.15967 7.76315 2.77345C7.76315 3.38722 8.26072 3.88479 8.87449 3.88479Z" fill="white"/>
<path d="M13.093 3.88479C13.7067 3.88479 14.2043 3.38722 14.2043 2.77345C14.2043 2.15967 13.7067 1.66211 13.093 1.66211C12.4792 1.66211 11.9816 2.15967 11.9816 2.77345C11.9816 3.38722 12.4792 3.88479 13.093 3.88479Z" fill="white"/>
<path d="M104.853 21.2819H36.9173C36.4217 21.2819 35.9463 21.4788 35.5959 21.8292C35.2454 22.1797 35.0485 22.655 35.0485 23.1506C35.0485 23.6463 35.2454 24.1216 35.5959 24.4721C35.9463 24.8226 36.4217 25.0194 36.9173 25.0194H104.853C105.349 25.0194 105.824 24.8226 106.175 24.4721C106.525 24.1216 106.722 23.6463 106.722 23.1506C106.722 22.655 106.525 22.1797 106.175 21.8292C105.824 21.4788 105.349 21.2819 104.853 21.2819Z" fill="#E2E8F0"/>
<path d="M104.853 35.6825H36.9173C36.4217 35.6825 35.9463 35.8794 35.5959 36.2298C35.2454 36.5803 35.0485 37.0556 35.0485 37.5513C35.0485 38.0469 35.2454 38.5222 35.5959 38.8727C35.9463 39.2232 36.4217 39.4201 36.9173 39.4201H104.853C105.348 39.4195 105.823 39.2224 106.173 38.872C106.523 38.5216 106.72 38.0465 106.72 37.5513C106.72 37.056 106.523 36.581 106.173 36.2306C105.823 35.8802 105.348 35.6831 104.853 35.6825Z" fill="#E2E8F0"/>
<path d="M104.853 50.0831H36.9173C36.4217 50.0831 35.9463 50.28 35.5959 50.6305C35.2454 50.9809 35.0485 51.4563 35.0485 51.9519C35.0485 52.4475 35.2454 52.9229 35.5959 53.2733C35.9463 53.6238 36.4217 53.8207 36.9173 53.8207H104.853C105.349 53.8207 105.824 53.6238 106.175 53.2733C106.525 52.9229 106.722 52.4475 106.722 51.9519C106.722 51.4563 106.525 50.9809 106.175 50.6305C105.824 50.28 105.349 50.0831 104.853 50.0831Z" fill="#E2E8F0"/>
<path d="M72.2044 25.1293H36.9825C36.4722 25.1367 35.9781 24.9504 35.5997 24.6081C35.2212 24.2657 34.9866 23.7927 34.943 23.2843C34.9238 23.0135 34.9609 22.7417 35.0521 22.4861C35.1433 22.2304 35.2866 21.9965 35.4728 21.799C35.6581 21.6015 35.8818 21.444 36.1302 21.3362C36.3786 21.2283 36.6465 21.1724 36.9173 21.1719H68.3569C69.377 21.173 70.3549 21.5788 71.0762 22.3001C71.7975 23.0214 72.2032 23.9993 72.2044 25.0194V25.1293Z" fill="#2563EB"/>
<path d="M90.4526 39.53H36.9825C36.4722 39.5373 35.9781 39.3511 35.5997 39.0087C35.2212 38.6664 34.9866 38.1933 34.943 37.6849C34.9238 37.4141 34.9609 37.1424 35.0521 36.8867C35.1433 36.6311 35.2866 36.3971 35.4728 36.1997C35.6581 36.0022 35.8818 35.8446 36.1302 35.7368C36.3786 35.6289 36.6465 35.573 36.9173 35.5725H86.605C87.6251 35.5737 88.6031 35.9794 89.3244 36.7007C90.0457 37.422 90.4514 38.4 90.4526 39.42V39.53Z" fill="#2563EB"/>
<path d="M82.9774 53.9307H36.9825C36.4722 53.9381 35.9781 53.7518 35.5997 53.4095C35.2212 53.0671 34.9866 52.5941 34.943 52.0856C34.9238 51.8149 34.9609 51.5431 35.0521 51.2875C35.1433 51.0318 35.2866 50.7979 35.4728 50.6004C35.6581 50.4029 35.8818 50.2454 36.1302 50.1375C36.3786 50.0297 36.6465 49.9738 36.9173 49.9733H79.1299C80.15 49.9744 81.1279 50.3802 81.8492 51.1015C82.5705 51.8228 82.9762 52.8007 82.9774 53.8208V53.9307Z" fill="#2563EB"/>
<path d="M140.016 54.4932C140.167 54.7802 140.378 55.0308 140.636 55.2273C140.893 55.4238 141.191 55.5615 141.507 55.6306C141.824 55.6997 142.151 55.6985 142.467 55.6273C142.784 55.556 143.08 55.4162 143.336 55.2179L149.932 59.5209L149.912 55.4288L143.652 51.9699C143.29 51.5616 142.791 51.3002 142.249 51.2351C141.708 51.1701 141.161 51.306 140.713 51.617C140.265 51.928 139.947 52.3926 139.818 52.9227C139.69 53.4528 139.76 54.0116 140.016 54.4932L140.016 54.4932Z" fill="#FEE2E2"/>
<path d="M173.113 124.455H170.284L168.937 113.541L173.114 113.541L173.113 124.455Z" fill="#FEE2E2"/>
<path d="M173.835 127.197L164.711 127.197V127.082C164.711 126.14 165.085 125.237 165.751 124.571C166.417 123.905 167.321 123.531 168.262 123.531H168.263L173.835 123.531L173.835 127.197Z" fill="#1E293B"/>
<path d="M159.114 124.455H156.285L154.939 113.541L159.115 113.541L159.114 124.455Z" fill="#FEE2E2"/>
<path d="M159.836 127.197L150.713 127.197V127.082C150.713 126.14 151.087 125.237 151.753 124.571C152.419 123.905 153.322 123.531 154.264 123.531H154.264L159.836 123.531L159.836 127.197Z" fill="#1E293B"/>
<path d="M155.849 68.7621L153.029 96.8965L154.439 121.181H159.889L160.991 98.3377L165.278 85.8466L167.773 105.096V120.769L173.974 121.056L176.032 82.6814C176.032 82.6814 176.731 71.9481 175.336 70.633C173.941 69.3179 155.849 68.7621 155.849 68.7621Z" fill="#1E293B"/>
<path d="M179.888 43.3753L174.19 41.2301L173.187 39.1965L166.023 39.3006L164.4 40.9312L158.821 42.7586L155.274 69.933C155.274 69.933 166.192 77.7361 175.884 72.3447L179.888 43.3753Z" fill="#334155"/>
<path d="M145.011 57.1197L154.388 62.6324L162.201 52.1815V45.6263C162.201 45.0204 162.022 44.428 161.686 43.9239C161.376 43.4581 160.945 43.0858 160.439 42.8472C159.933 42.6086 159.371 42.5126 158.815 42.5698C158.258 42.6269 157.728 42.8349 157.281 43.1714C156.834 43.5079 156.487 43.96 156.278 44.479L152.22 54.5607L146.465 52.8602L145.011 57.1197Z" fill="#334155"/>
<path d="M172.259 71.8213C172.316 71.5024 172.442 71.1999 172.629 70.9351C172.815 70.6703 173.058 70.4496 173.339 70.2886C173.62 70.1276 173.933 70.0302 174.256 70.0033C174.579 69.9763 174.903 70.0205 175.207 70.1327L180.205 64.047L181.416 67.9562L176.484 73.1359C176.262 73.634 175.864 74.0332 175.367 74.258C174.87 74.4827 174.308 74.5173 173.787 74.3553C173.267 74.1933 172.823 73.8458 172.542 73.3788C172.26 72.9118 172.159 72.3576 172.259 71.8213L172.259 71.8213Z" fill="#FEE2E2"/>
<path d="M179.713 70.863L176.555 67.7046L181.771 58.3587L174.206 49.8796L174.643 46.4589C174.743 45.6714 175.059 44.9267 175.555 44.3067C175.986 43.7675 176.54 43.3394 177.17 43.0581C177.8 42.7769 178.489 42.6506 179.178 42.69C179.868 42.7294 180.537 42.9333 181.132 43.2845C181.726 43.6358 182.227 44.1242 182.594 44.709L188.509 57.8607L188.479 57.9044L179.713 70.863Z" fill="#334155"/>
<path d="M174.851 32.1365C174.632 33.7316 173.789 35.1747 172.507 36.1487C171.225 37.1226 169.609 37.5477 168.014 37.3306C166.418 37.1135 164.974 36.2719 163.999 34.9907C163.024 33.7096 162.598 32.0937 162.813 30.4982L162.825 30.412C163.077 28.8379 163.937 27.4258 165.22 26.4804C166.504 25.5349 168.107 25.1319 169.685 25.3582C171.263 25.5844 172.689 26.4219 173.655 27.6899C174.621 28.958 175.05 30.5549 174.849 32.1362L174.851 32.1365Z" fill="#FEE2E2"/>
<path d="M173.305 35.2653C173.617 34.6316 173.937 33.9513 173.85 33.2505C173.762 32.5497 173.075 31.8799 172.4 32.0881C171.996 32.2127 171.691 32.6112 171.269 32.6316C170.689 32.6596 170.356 31.9954 170.175 31.4431L169.44 29.1937C168.733 29.7443 167.914 30.1322 167.04 30.3297C166.166 30.5271 165.26 30.5293 164.385 30.3359C163.702 30.1797 163.012 29.8752 162.611 29.3003C162.21 28.7254 162.213 27.8336 162.762 27.3989C163.032 27.1857 163.39 27.1047 163.648 26.8773C163.808 26.7362 163.918 26.5474 163.962 26.3388C164.006 26.1303 163.982 25.9131 163.893 25.7193C163.804 25.5256 163.655 25.3656 163.468 25.2631C163.281 25.1606 163.067 25.1209 162.855 25.15L164.708 24.9185L164.156 23.9201C164.366 24.0629 164.603 24.1604 164.853 24.2062C165.102 24.252 165.359 24.2451 165.606 24.1861C166.104 24.0963 166.574 23.8911 167.061 23.7543C168.243 23.4524 169.491 23.5447 170.616 24.017C171.741 24.4893 172.681 25.3158 173.293 26.371C173.749 26.2187 174.24 26.2086 174.702 26.3419C175.164 26.4753 175.574 26.7458 175.879 27.1176C176.375 27.7471 176.509 28.5871 176.529 29.3882C176.565 30.9679 176.22 32.533 175.524 33.9516C175.325 34.4022 175.038 34.8089 174.681 35.1483C174.501 35.3165 174.286 35.4434 174.052 35.52C173.818 35.5965 173.57 35.621 173.325 35.5915" fill="#1E293B"/>
<path d="M201.43 127.776H47.6784C47.5947 127.778 47.5129 127.752 47.4455 127.702C47.3782 127.653 47.3291 127.582 47.306 127.502C47.2916 127.447 47.2899 127.39 47.3011 127.334C47.3123 127.279 47.336 127.226 47.3706 127.182C47.4051 127.137 47.4494 127.1 47.5002 127.075C47.551 127.05 47.6068 127.037 47.6634 127.037H201.4C201.488 127.034 201.575 127.061 201.646 127.114C201.717 127.166 201.768 127.241 201.791 127.326C201.803 127.38 201.803 127.436 201.79 127.49C201.778 127.544 201.753 127.594 201.718 127.638C201.684 127.681 201.64 127.716 201.59 127.74C201.54 127.763 201.486 127.776 201.43 127.776Z" fill="#CBD5E1"/>
</g>
<defs>
<clipPath id="clip0_1503_3946">
<rect width="201.599" height="127.776" fill="white" transform="translate(0.200439)"/>
</clipPath>
</defs>
</svg>
