<svg width="200" height="109" viewBox="0 0 200 109" fill="none" xmlns="http://www.w3.org/2000/svg">
<g clip-path="url(#clip0_1402_5741)">
<path d="M186.367 106.459C186.109 107.157 185.787 107.827 185.407 108.46C185.301 108.635 185.191 108.807 185.073 108.974H175.272C175.203 108.92 175.137 108.864 175.068 108.81C174.723 108.781 174.381 108.745 174.047 108.707C174.081 108.676 174.118 108.645 174.153 108.614C173.975 108.63 173.798 108.645 173.621 108.653C173.761 108.671 173.904 108.689 174.047 108.707C173.941 108.797 173.833 108.887 173.722 108.974H173.294L173.582 108.653C173.353 108.661 173.127 108.666 172.898 108.661L173.614 108.46L174.386 108.244C174.416 108.27 174.448 108.295 174.477 108.321C175.796 107.11 176.868 105.634 177.629 103.982C178.391 102.329 178.827 100.533 178.912 98.7005C178.996 96.868 178.727 95.0365 178.121 93.3149C177.515 91.5933 176.584 90.0166 175.383 88.6787C177.316 90.0346 178.971 91.7788 180.253 93.8099C181.535 95.8411 182.417 98.1185 182.849 100.51C183.071 101.678 183.104 102.878 182.947 104.058C183.033 103.958 183.119 103.857 183.203 103.755C184.449 102.177 185.347 100.332 185.834 98.3498C186.32 96.3681 186.383 94.2988 186.017 92.2889C186.971 94.5088 187.494 96.9048 187.554 99.3375C187.614 101.77 187.21 104.191 186.367 106.459Z" fill="#F1F5F9"/>
<path d="M137.476 20.4589C141.292 20.4589 144.385 17.226 144.385 13.2381C144.385 9.25018 141.292 6.01733 137.476 6.01733C133.661 6.01733 130.568 9.25018 130.568 13.2381C130.568 17.226 133.661 20.4589 137.476 20.4589Z" fill="#475569"/>
<path d="M159.879 105.965L156.863 105.964L155.428 93.8049L159.879 93.8052L159.879 105.965Z" fill="#FECACA"/>
<path d="M154.708 105.064H160.525V108.892H151.046C151.046 108.389 151.141 107.891 151.325 107.427C151.509 106.962 151.779 106.54 152.119 106.185C152.459 105.829 152.863 105.547 153.307 105.355C153.751 105.163 154.227 105.064 154.708 105.064Z" fill="#475569"/>
<path d="M129.113 105.552L126.201 104.731L127.844 92.6006L132.141 93.8119L129.113 105.552Z" fill="#FECACA"/>
<path d="M124.346 103.275L129.961 104.858L129.008 108.554L119.856 105.975C120.109 104.995 120.724 104.159 121.566 103.653C122.408 103.147 123.408 103.011 124.346 103.275Z" fill="#475569"/>
<path d="M134.828 49.7029L125.848 102.896L130.453 103.859L144.96 66.3106L155.783 103.618L161.31 102.896C161.31 102.896 158.777 49.4622 150.717 44.889L134.828 49.7029Z" fill="#475569"/>
<path d="M120.586 68.7316C120.91 68.5632 121.194 68.3226 121.419 68.0269C121.645 67.7311 121.805 67.3873 121.889 67.0197C121.974 66.6521 121.98 66.2697 121.908 65.8993C121.835 65.529 121.686 65.1797 121.471 64.8761L126.423 57.2847L121.856 57.2106L117.853 64.4309C117.389 64.8431 117.086 65.4188 117.001 66.049C116.916 66.6792 117.055 67.3201 117.392 67.8502C117.729 68.3803 118.24 68.7628 118.829 68.9253C119.417 69.0877 120.043 69.0188 120.586 68.7316Z" fill="#FECACA"/>
<path d="M153.285 59.3447C153.608 59.1762 153.893 58.9357 154.118 58.6399C154.343 58.3441 154.504 58.0004 154.588 57.6328C154.672 57.2652 154.679 56.8827 154.606 56.5124C154.534 56.142 154.385 55.7927 154.169 55.4891L159.122 47.8977L154.554 47.8236L150.551 55.0439C150.087 55.4561 149.784 56.0318 149.699 56.662C149.614 57.2922 149.754 57.9331 150.09 58.4632C150.427 58.9934 150.939 59.3759 151.527 59.5383C152.116 59.7008 152.741 59.6319 153.285 59.3446V59.3447Z" fill="#FECACA"/>
<path d="M137.652 21.8884C140.989 21.8884 143.694 19.0609 143.694 15.5729C143.694 12.085 140.989 9.25745 137.652 9.25745C134.315 9.25745 131.61 12.085 131.61 15.5729C131.61 19.0609 134.315 21.8884 137.652 21.8884Z" fill="#FECACA"/>
<path d="M150.717 25.393C150.487 24.4302 146.572 24.6709 146.572 24.6709C146.572 24.6709 142.164 23.6116 142.206 23.7441C138.491 23.4452 133.96 24.9029 133.3 25.1239C131.95 25.5133 129.37 26.7043 127.51 27.5804C127.251 27.7024 127.048 27.9263 126.947 28.2034C126.845 28.4805 126.852 28.7885 126.966 29.0603L132.641 42.6024L133.447 51.3877L152.099 45.3704C147.493 43.4449 150.947 26.3557 150.717 25.393Z" fill="#2563EB"/>
<path d="M149.105 25.6337L150.636 25.2318L159.007 42.4821L159.467 52.3507L154.171 48.0182V44.1671L148.645 36.7056L149.105 25.6337Z" fill="#2563EB"/>
<path d="M128.956 26.9575L127.184 27.781C127.091 27.8239 127.011 27.8898 126.949 27.973C126.886 28.0562 126.845 28.1541 126.827 28.2581L123.315 49.2215L119.861 59.812L124.466 62.2189L129.762 48.9808L131.605 39.3532L128.956 26.9575Z" fill="#2563EB"/>
<path d="M131.316 12.5958C132.542 12.1749 133.836 12.8348 135.034 13.3371C136.215 13.8321 137.476 14.1888 138.746 14.1109C140.016 14.0329 141.3 13.4723 142.068 12.4121C142.836 11.352 142.971 9.76308 142.211 8.69681C141.71 7.99487 140.912 7.59438 140.113 7.33359C138.405 6.77638 136.493 6.75713 134.87 7.54324C133.246 8.32934 131.973 9.99004 131.839 11.855" fill="#475569"/>
<path d="M137.292 7.56524C136.881 4.65036 138.408 1.62391 140.493 0.538241C142.578 -0.547431 145.024 0.0930163 146.902 1.70972C148.78 3.32642 150.149 5.81081 151.168 8.45173C152.187 11.0927 152.893 13.9213 153.723 16.6756C154.461 19.1217 155.326 21.5693 156.727 23.4401C158.127 25.311 160.164 26.5284 162.116 26.0143C160.512 28.2675 157.563 27.8774 155.733 25.9501C153.903 24.0229 152.952 21.0105 152.203 18.0783C151.454 15.1461 150.803 12.0781 149.354 9.64819C146.777 5.32539 141.721 4.02669 138.109 6.7602" fill="#475569"/>
<path d="M200 108.46H0V108.974H200V108.46Z" fill="#475569"/>
<path d="M104.93 59.1181H17.6424C16.9434 59.1173 16.2734 58.8267 15.7791 58.3101C15.2849 57.7936 15.0069 57.0931 15.0062 56.3626V34.6249C15.0069 33.8943 15.2849 33.1939 15.7791 32.6773C16.2734 32.1607 16.9434 31.8702 17.6424 31.8694H104.93C105.629 31.8702 106.299 32.1607 106.793 32.6773C107.287 33.1939 107.565 33.8943 107.566 34.6249V56.3626C107.565 57.0931 107.287 57.7936 106.793 58.3101C106.299 58.8267 105.629 59.1173 104.93 59.1181ZM17.6424 32.4817C17.0988 32.4824 16.5776 32.7084 16.1933 33.1102C15.8089 33.512 15.5926 34.0567 15.592 34.6249V56.3626C15.5926 56.9308 15.8089 57.4755 16.1933 57.8773C16.5776 58.279 17.0988 58.5051 17.6424 58.5057H104.93C105.473 58.5051 105.995 58.279 106.379 57.8773C106.763 57.4755 106.98 56.9308 106.98 56.3626V34.6249C106.98 34.0567 106.763 33.512 106.379 33.1102C105.995 32.7084 105.473 32.4824 104.93 32.4817H17.6424Z" fill="#94A3B8"/>
<path d="M100.683 54.5257H21.8896C21.851 54.5258 21.8128 54.5179 21.7772 54.5026C21.7416 54.4873 21.7092 54.4647 21.6819 54.4363C21.6546 54.4079 21.6329 54.3741 21.6182 54.3369C21.6034 54.2997 21.5958 54.2598 21.5958 54.2195C21.5958 54.1792 21.6034 54.1393 21.6182 54.1021C21.6329 54.0649 21.6546 54.0311 21.6819 54.0027C21.7092 53.9743 21.7416 53.9517 21.7772 53.9364C21.8128 53.921 21.851 53.9132 21.8896 53.9133H100.683C100.721 53.9132 100.759 53.921 100.795 53.9364C100.831 53.9517 100.863 53.9743 100.89 54.0027C100.918 54.0311 100.939 54.0649 100.954 54.1021C100.969 54.1393 100.976 54.1792 100.976 54.2195C100.976 54.2598 100.969 54.2997 100.954 54.3369C100.939 54.3741 100.918 54.4079 100.89 54.4363C100.863 54.4647 100.831 54.4873 100.795 54.5026C100.759 54.5179 100.721 54.5258 100.683 54.5257Z" fill="#F1F5F9"/>
<path d="M30.2375 44.4223H23.7935C23.716 44.4225 23.6417 44.4548 23.5869 44.5122C23.5322 44.5696 23.5014 44.6474 23.5014 44.7284C23.5014 44.8095 23.5322 44.8872 23.5869 44.9446C23.6417 45.002 23.716 45.0343 23.7935 45.0346H26.7226V50.4484C26.7175 50.8408 26.8556 51.2204 27.109 51.51C27.3624 51.7996 27.7118 51.9774 28.0862 52.007C28.1045 52.0079 28.1234 52.0082 28.1426 52.0082C28.3728 52.0037 28.5986 51.9407 28.8003 51.8245C29.002 51.7083 29.1736 51.5425 29.3002 51.3415C29.3466 51.2765 29.3665 51.1949 29.3555 51.1147C29.3445 51.0344 29.3034 50.962 29.2413 50.9133C29.1792 50.8647 29.1012 50.8438 29.0244 50.8552C28.9476 50.8666 28.8783 50.9095 28.8316 50.9743C28.757 51.104 28.6512 51.2111 28.5248 51.285C28.3983 51.3588 28.2556 51.3968 28.1108 51.3953C27.887 51.3736 27.6795 51.2636 27.5304 51.0877C27.3814 50.9118 27.302 50.6832 27.3084 50.4484V45.0346H30.2376C30.2761 45.0347 30.3143 45.0269 30.3499 45.0115C30.3855 44.9962 30.4179 44.9737 30.4452 44.9452C30.4725 44.9168 30.4942 44.883 30.5089 44.8458C30.5237 44.8086 30.5313 44.7687 30.5313 44.7284C30.5313 44.6881 30.5237 44.6482 30.5089 44.611C30.4942 44.5738 30.4725 44.54 30.4452 44.5116C30.4179 44.4832 30.3855 44.4606 30.3499 44.4453C30.3143 44.43 30.2761 44.4221 30.2376 44.4222L30.2375 44.4223Z" fill="#2563EB"/>
<path d="M31.6052 51.7798C31.7009 51.7764 31.7915 51.7342 31.858 51.6623C31.9245 51.5903 31.9617 51.4942 31.9617 51.3941C31.9617 51.2941 31.9245 51.198 31.858 51.126C31.7915 51.054 31.7009 51.0119 31.6052 51.0084C31.5096 51.0119 31.4189 51.054 31.3524 51.126C31.2859 51.198 31.2488 51.2941 31.2488 51.3941C31.2488 51.4942 31.2859 51.5903 31.3524 51.6623C31.4189 51.7342 31.5096 51.7764 31.6052 51.7798Z" fill="#94A3B8"/>
<path d="M33.9485 51.7798C34.0442 51.7764 34.1348 51.7342 34.2013 51.6623C34.2678 51.5903 34.305 51.4942 34.305 51.3941C34.305 51.2941 34.2678 51.198 34.2013 51.126C34.1348 51.054 34.0442 51.0119 33.9485 51.0084C33.8529 51.0119 33.7622 51.054 33.6957 51.126C33.6292 51.198 33.5921 51.2941 33.5921 51.3941C33.5921 51.4942 33.6292 51.5903 33.6957 51.6623C33.7622 51.7342 33.8529 51.7764 33.9485 51.7798Z" fill="#94A3B8"/>
<path d="M36.2918 51.7798C36.3875 51.7764 36.4781 51.7342 36.5446 51.6623C36.6111 51.5903 36.6482 51.4942 36.6482 51.3941C36.6482 51.2941 36.6111 51.198 36.5446 51.126C36.4781 51.054 36.3875 51.0119 36.2918 51.0084C36.1962 51.0119 36.1055 51.054 36.039 51.126C35.9725 51.198 35.9354 51.2941 35.9354 51.3941C35.9354 51.4942 35.9725 51.5903 36.039 51.6623C36.1055 51.7342 36.1962 51.7764 36.2918 51.7798Z" fill="#94A3B8"/>
</g>
<defs>
<clipPath id="clip0_1402_5741">
<rect width="200" height="108.974" fill="white"/>
</clipPath>
</defs>
</svg>
