<svg width="196" height="137" viewBox="0 0 196 137" fill="none" xmlns="http://www.w3.org/2000/svg">
<g clip-path="url(#clip0_1630_4637)">
<path d="M159.371 90.6878C159.588 90.4049 159.742 90.0777 159.819 89.7293C159.897 89.3808 159.897 89.0195 159.82 88.6709C159.744 88.3222 159.591 87.9947 159.374 87.7114C159.157 87.428 158.88 87.1958 158.563 87.031L159.046 81.4707L155.738 80.3534L155.166 88.215C154.925 88.7654 154.894 89.3852 155.079 89.9571C155.264 90.529 155.652 91.0132 156.17 91.318C156.688 91.6228 157.3 91.727 157.89 91.6109C158.479 91.4948 159.006 91.1665 159.37 90.688L159.371 90.6878Z" fill="#FECACA"/>
<path d="M175.874 133.917H172.898L171.481 122.431H175.876L175.874 133.917Z" fill="#FECACA"/>
<path d="M170.771 133.066H176.513V136.681H167.155C167.155 135.722 167.536 134.803 168.214 134.125C168.892 133.446 169.812 133.066 170.771 133.066Z" fill="#334155"/>
<path d="M169.116 126.295L166.225 127.006L162.108 116.191L166.376 115.142L169.116 126.295Z" fill="#FECACA"/>
<path d="M163.997 126.584L169.573 125.212L170.437 128.723L161.351 130.959C161.121 130.028 161.272 129.044 161.768 128.224C162.264 127.403 163.066 126.814 163.997 126.584Z" fill="#334155"/>
<path d="M172.39 130.254C172.118 130.255 171.856 130.155 171.654 129.973C171.451 129.791 171.324 129.54 171.296 129.27L167.871 97.351L164.889 107.112L169.112 122.357C169.185 122.618 169.158 122.897 169.038 123.14C168.918 123.384 168.712 123.574 168.46 123.674L165.102 125.017C164.964 125.072 164.816 125.099 164.667 125.095C164.519 125.092 164.372 125.058 164.236 124.996C164.101 124.935 163.979 124.846 163.879 124.736C163.779 124.626 163.702 124.497 163.653 124.356L158.478 109.508C157.911 107.887 157.661 106.172 157.74 104.457L158.462 88.4327L177.486 89.2383L177.189 128.884C177.186 129.16 177.079 129.424 176.891 129.626C176.703 129.828 176.446 129.952 176.17 129.974L172.476 130.252C172.447 130.254 172.419 130.254 172.39 130.254Z" fill="#334155"/>
<path d="M169.239 52.97C172.772 52.97 175.637 50.106 175.637 46.573C175.637 43.04 172.772 40.1759 169.239 40.1759C165.706 40.1759 162.842 43.04 162.842 46.573C162.842 50.106 165.706 52.97 169.239 52.97Z" fill="#FECACA"/>
<path d="M173.944 90.2806C172.259 90.2806 170.167 90.1428 168.001 90.0004C165.042 89.8055 161.983 89.6042 159.699 89.7365C159.391 89.7671 159.079 89.7183 158.795 89.5945C158.511 89.4708 158.263 89.2763 158.076 89.0297C155.722 86.0151 159.352 74.2597 159.508 73.7609L162.463 60.6162L162.59 60.6449L162.463 60.6162C163.114 57.7251 165.19 55.5925 167.884 55.0508C170.405 54.5445 172.844 55.5537 174.408 57.753C174.491 57.8697 174.574 57.9894 174.656 58.1122C179.749 65.6542 176.868 84.3922 176.675 85.6005C176.945 85.9227 178.399 87.7446 177.999 89.0101C177.837 89.525 177.395 89.8759 176.686 90.0519C175.783 90.2308 174.863 90.3072 173.943 90.2798L173.944 90.2806Z" fill="#3B82F6"/>
<path d="M159.802 90.2864C159.223 90.2864 158.441 90.0726 157.387 89.6353C156.934 89.4467 155.556 88.8735 157.229 74.2496C158.051 67.0662 159.229 59.9329 159.241 59.8618L159.252 59.793L159.315 59.7643C159.346 59.7505 162.353 58.3722 162.876 56.6008C162.893 56.5395 162.913 56.4801 162.937 56.4224C163.081 56.0287 163.371 55.7057 163.747 55.5209C164.124 55.3361 164.557 55.3038 164.956 55.4306C165.378 55.5315 165.746 55.7892 165.985 56.1514C166.224 56.5136 166.317 56.9531 166.243 57.3809C166.061 58.5363 165.711 59.6587 165.204 60.7127C163.789 63.6324 162.83 71.3726 162.821 71.4505C162.767 72.1115 161.483 87.7738 161.235 88.9623C161.149 89.3774 160.99 89.8853 160.523 90.1317C160.3 90.2421 160.052 90.2958 159.803 90.288L159.802 90.2864Z" fill="#334155"/>
<path d="M166.79 89.6862C166.674 89.6862 166.56 89.6473 166.468 89.5756C164.586 88.1454 167.631 70.8094 169.437 64.828C169.799 63.6299 170.121 62.6045 170.394 61.7791C170.893 60.2981 171.241 58.7705 171.433 57.2196C171.533 56.3794 171.749 55.8996 172.094 55.7524C172.334 55.6501 172.615 55.7196 172.933 55.959C174.601 55.8767 176.223 56.558 177.725 57.3084L179.077 57.983L180.595 84.8488C180.552 86.5634 177.172 87.7737 175.698 87.8511C173.331 87.9753 169.08 88.3608 167.207 89.5464C167.085 89.6318 166.94 89.6802 166.791 89.686L166.79 89.6862Z" fill="#334155"/>
<path d="M158.337 84.6454C158.315 84.6454 158.292 84.6454 158.27 84.6434L155.205 84.4548C155.052 84.4454 154.903 84.4044 154.767 84.3344C154.631 84.2643 154.511 84.1667 154.415 84.0478C154.319 83.9289 154.249 83.7913 154.209 83.6438C154.169 83.4962 154.16 83.342 154.183 83.1908L155.57 74.0022L158.18 61.1096C158.245 60.792 158.375 60.4915 158.563 60.2275C158.751 59.9635 158.992 59.742 159.271 59.5772C159.55 59.4125 159.861 59.3082 160.183 59.2711C160.505 59.2341 160.831 59.2651 161.14 59.3622C161.668 59.5308 162.119 59.8828 162.411 60.3546C162.703 60.8265 162.816 61.3871 162.731 61.9352L160.656 74.8538L159.428 83.6956C159.391 83.9585 159.26 84.1991 159.059 84.3735C158.859 84.5479 158.602 84.6444 158.337 84.6454H158.337Z" fill="#334155"/>
<path d="M168.808 74.5879C168.995 74.2838 169.246 74.0243 169.544 73.8277C169.842 73.6312 170.18 73.5024 170.533 73.4504C170.886 73.3985 171.246 73.4246 171.588 73.5269C171.931 73.6293 172.246 73.8054 172.513 74.0428L177.538 71.6154L179.758 74.3095L172.613 77.6379C172.185 78.0594 171.616 78.309 171.016 78.3394C170.416 78.3699 169.825 78.179 169.356 77.8031C168.887 77.4272 168.572 76.8922 168.471 76.2997C168.37 75.7071 168.49 75.0981 168.808 74.5879Z" fill="#FECACA"/>
<path d="M175.789 77.1948C175.541 77.1947 175.301 77.1115 175.107 76.9583C174.913 76.8052 174.775 76.5912 174.717 76.3506L173.988 73.3163C173.932 73.0881 173.951 72.848 174.042 72.6315C174.133 72.4149 174.291 72.2332 174.493 72.1133L178.895 69.4785L176.645 61.2392C176.45 60.5336 176.539 59.7799 176.893 59.1393C177.248 58.4987 177.838 58.0223 178.539 57.8118C179.24 57.6014 179.996 57.6738 180.644 58.0135C181.293 58.3532 181.782 58.9332 182.008 59.6293L184.493 67.2151C184.798 68.1398 184.8 69.1377 184.5 70.0639C184.199 70.99 183.611 71.7962 182.82 72.3651L176.434 76.9856C176.246 77.1215 176.021 77.1947 175.789 77.1948Z" fill="#334155"/>
<path d="M128.23 0H4.98326C3.83147 0.00137856 2.72725 0.459536 1.91282 1.27397C1.09838 2.08841 0.640226 3.19262 0.638847 4.34441V17.6068C0.640226 18.7586 1.09838 19.8628 1.91282 20.6773C2.72725 21.4917 3.83147 21.9499 4.98326 21.9513H128.23C129.381 21.9499 130.486 21.4917 131.3 20.6773C132.114 19.8628 132.573 18.7586 132.574 17.6068V4.34441C132.573 3.19262 132.114 2.08841 131.3 1.27397C130.486 0.459536 129.381 0.00137856 128.23 0ZM132.117 17.6068C132.115 18.6373 131.705 19.6251 130.976 20.3537C130.248 21.0824 129.26 21.4924 128.23 21.4939H4.98326C3.95281 21.4924 2.96501 21.0824 2.23637 20.3537C1.50774 19.6251 1.09772 18.6373 1.09621 17.6068V4.34441C1.09772 3.31396 1.50774 2.32616 2.23637 1.59752C2.96501 0.868889 3.95281 0.458876 4.98326 0.45736H128.23C129.26 0.458876 130.248 0.868889 130.976 1.59752C131.705 2.32616 132.115 3.31396 132.117 4.34441V17.6068Z" fill="#334155"/>
<path d="M128.23 53.2772H4.98326C3.83147 53.2758 2.72725 52.8176 1.91282 52.0032C1.09838 51.1888 0.640226 50.0845 0.638847 48.9328V35.6706C0.640226 34.5188 1.09838 33.4146 1.91282 32.6001C2.72725 31.7857 3.83147 31.3276 4.98326 31.3262H128.23C129.381 31.3276 130.486 31.7857 131.3 32.6001C132.114 33.4146 132.573 34.5188 132.574 35.6706V48.9328C132.573 50.0845 132.114 51.1888 131.3 52.0032C130.486 52.8176 129.381 53.2758 128.23 53.2772ZM4.98326 31.7835C3.95271 31.7847 2.9647 32.1946 2.23599 32.9233C1.50728 33.652 1.09738 34.64 1.09621 35.6706V48.9328C1.09717 49.9634 1.50698 50.9516 2.23572 51.6805C2.96445 52.4094 3.95257 52.8194 4.98326 52.8206H128.23C129.26 52.8195 130.248 52.4096 130.977 51.6809C131.706 50.9522 132.116 49.9641 132.117 48.9335V35.6706C132.116 34.64 131.706 33.652 130.977 32.9233C130.248 32.1946 129.26 31.7847 128.23 31.7835H4.98326Z" fill="#CBD5E1"/>
<path d="M128.23 84.6032H4.98326C3.83147 84.6018 2.72725 84.1437 1.91282 83.3292C1.09838 82.5148 0.640226 81.4106 0.638847 80.2588V66.9966C0.640226 65.8448 1.09838 64.7406 1.91282 63.9262C2.72725 63.1118 3.83147 62.6536 4.98326 62.6522H128.23C129.381 62.6536 130.486 63.1118 131.3 63.9262C132.114 64.7406 132.573 65.8448 132.574 66.9966V80.2588C132.573 81.4106 132.114 82.5148 131.3 83.3292C130.486 84.1437 129.381 84.6018 128.23 84.6032ZM4.98326 63.1085C3.95271 63.1097 2.9647 63.5196 2.23599 64.2483C1.50728 64.977 1.09738 65.965 1.09621 66.9956V80.2578C1.09731 81.2884 1.50719 82.2764 2.2359 83.0052C2.96462 83.734 3.95266 84.1439 4.98326 84.1451H128.23C129.26 84.144 130.248 83.7341 130.977 83.0054C131.706 82.2767 132.116 81.2886 132.117 80.258V66.9966C132.116 65.9659 131.706 64.9775 130.977 64.2486C130.249 63.5197 129.26 63.1096 128.23 63.1085H4.98326Z" fill="#CBD5E1"/>
<path d="M21.6365 18.5372C20.141 18.5372 18.6791 18.0937 17.4356 17.2628C16.1921 16.432 15.2229 15.251 14.6506 13.8693C14.0783 12.4876 13.9285 10.9672 14.2203 9.50044C14.512 8.03364 15.2322 6.6863 16.2897 5.6288C17.3472 4.57129 18.6946 3.85112 20.1614 3.55936C21.6282 3.26759 23.1485 3.41734 24.5302 3.98966C25.9119 4.56197 27.0929 5.53116 27.9238 6.77465C28.7546 8.01814 29.1981 9.48009 29.1981 10.9756C29.1981 12.9811 28.4015 14.9044 26.9834 16.3225C25.5653 17.7405 23.642 18.5372 21.6365 18.5372Z" fill="#3B82F6"/>
<path d="M117.065 17.1492H36.35C35.8648 17.1492 35.3995 16.9565 35.0565 16.6134C34.7134 16.2704 34.5207 15.8051 34.5207 15.3199C34.5207 14.8348 34.7134 14.3695 35.0565 14.0264C35.3995 13.6833 35.8648 13.4906 36.35 13.4906H117.065C117.551 13.4906 118.016 13.6833 118.359 14.0264C118.702 14.3695 118.895 14.8348 118.895 15.3199C118.895 15.8051 118.702 16.2704 118.359 16.6134C118.016 16.9565 117.551 17.1492 117.065 17.1492Z" fill="#CBD5E1"/>
<path d="M90.7684 9.37481H36.3482C35.863 9.37481 35.3977 9.18208 35.0547 8.83902C34.7116 8.49596 34.5189 8.03067 34.5189 7.5455C34.5189 7.06034 34.7116 6.59504 35.0547 6.25198C35.3977 5.90892 35.863 5.71619 36.3482 5.71619H90.7684C91.2536 5.71619 91.7189 5.90892 92.0619 6.25198C92.405 6.59504 92.5977 7.06034 92.5977 7.5455C92.5977 8.03067 92.405 8.49596 92.0619 8.83902C91.7189 9.18208 91.2536 9.37481 90.7684 9.37481Z" fill="#CBD5E1"/>
<path d="M21.6365 49.863C20.141 49.863 18.6791 49.4195 17.4356 48.5886C16.1921 47.7578 15.2229 46.5768 14.6506 45.1951C14.0783 43.8134 13.9285 42.2931 14.2203 40.8263C14.512 39.3595 15.2322 38.0121 16.2897 36.9546C17.3472 35.8971 18.6946 35.1769 20.1614 34.8852C21.6282 34.5934 23.1485 34.7431 24.5302 35.3155C25.9119 35.8878 27.0929 36.857 27.9238 38.1005C28.7546 39.344 29.1981 40.8059 29.1981 42.3014C29.1981 44.3069 28.4015 46.2302 26.9834 47.6483C25.5653 49.0663 23.642 49.863 21.6365 49.863Z" fill="#E2E8F0"/>
<path d="M117.065 48.4753H36.35C35.8648 48.4753 35.3995 48.2825 35.0565 47.9395C34.7134 47.5964 34.5207 47.1311 34.5207 46.646C34.5207 46.1608 34.7134 45.6955 35.0565 45.3524C35.3995 45.0094 35.8648 44.8167 36.35 44.8167H117.065C117.551 44.8167 118.016 45.0094 118.359 45.3524C118.702 45.6955 118.895 46.1608 118.895 46.646C118.895 47.1311 118.702 47.5964 118.359 47.9395C118.016 48.2825 117.551 48.4753 117.065 48.4753Z" fill="#E2E8F0"/>
<path d="M90.7684 40.701H36.3482C35.863 40.701 35.3977 40.5083 35.0547 40.1652C34.7116 39.8221 34.5189 39.3568 34.5189 38.8717C34.5189 38.3865 34.7116 37.9212 35.0547 37.5782C35.3977 37.2351 35.863 37.0424 36.3482 37.0424H90.7684C91.2536 37.0424 91.7189 37.2351 92.0619 37.5782C92.405 37.9212 92.5977 38.3865 92.5977 38.8717C92.5977 39.3568 92.405 39.8221 92.0619 40.1652C91.7189 40.5083 91.2536 40.701 90.7684 40.701Z" fill="#E2E8F0"/>
<path d="M21.6365 81.1892C20.141 81.1892 18.6791 80.7457 17.4356 79.9148C16.1921 79.084 15.2229 77.903 14.6506 76.5213C14.0783 75.1396 13.9285 73.6192 14.2203 72.1524C14.512 70.6856 15.2322 69.3383 16.2897 68.2808C17.3472 67.2233 18.6946 66.5031 20.1614 66.2113C21.6282 65.9196 23.1485 66.0693 24.5302 66.6416C25.9119 67.214 27.0929 68.1831 27.9238 69.4266C28.7546 70.6701 29.1981 72.1321 29.1981 73.6276C29.1981 75.6331 28.4015 77.5564 26.9834 78.9744C25.5653 80.3925 23.642 81.1892 21.6365 81.1892Z" fill="#E2E8F0"/>
<path d="M117.065 79.8015H36.35C35.8648 79.8015 35.3995 79.6087 35.0565 79.2657C34.7134 78.9226 34.5207 78.4573 34.5207 77.9721C34.5207 77.487 34.7134 77.0217 35.0565 76.6786C35.3995 76.3356 35.8648 76.1428 36.35 76.1428H117.065C117.551 76.1428 118.016 76.3356 118.359 76.6786C118.702 77.0217 118.895 77.487 118.895 77.9721C118.895 78.4573 118.702 78.9226 118.359 79.2657C118.016 79.6087 117.551 79.8015 117.065 79.8015Z" fill="#E2E8F0"/>
<path d="M90.7684 72.0272H36.3482C35.863 72.0272 35.3977 71.8344 35.0547 71.4914C34.7116 71.1483 34.5189 70.683 34.5189 70.1978C34.5189 69.7127 34.7116 69.2474 35.0547 68.9043C35.3977 68.5613 35.863 68.3685 36.3482 68.3685H90.7684C91.2536 68.3685 91.7189 68.5613 92.0619 68.9043C92.405 69.2474 92.5977 69.7127 92.5977 70.1978C92.5977 70.683 92.405 71.1483 92.0619 71.4914C91.7189 71.8344 91.2536 72.0272 90.7684 72.0272Z" fill="#E2E8F0"/>
<path d="M21.2506 13.6354C21.0628 13.6358 20.8799 13.5751 20.7296 13.4624L20.7203 13.4554L18.7603 11.9562C18.6696 11.8866 18.5934 11.7998 18.5361 11.7008C18.4789 11.6018 18.4417 11.4924 18.4268 11.379C18.4118 11.2656 18.4193 11.1504 18.4488 11.0399C18.4784 10.9294 18.5294 10.8258 18.599 10.735C18.6686 10.6443 18.7554 10.5681 18.8544 10.5108C18.9534 10.4536 19.0628 10.4164 19.1761 10.4015C19.2895 10.3865 19.4048 10.394 19.5153 10.4235C19.6258 10.4531 19.7294 10.5041 19.8201 10.5737L21.0896 11.5473L24.0893 7.63366C24.2298 7.45047 24.4373 7.33058 24.6661 7.30035C24.895 7.27012 25.1265 7.33201 25.3098 7.47243L25.2913 7.49848L25.3103 7.47243C25.4933 7.61314 25.613 7.82068 25.6432 8.04953C25.6733 8.27838 25.6115 8.50986 25.4713 8.69319L21.9429 13.2944C21.8611 13.4002 21.7561 13.4858 21.636 13.5445C21.5158 13.6032 21.3838 13.6335 21.25 13.633L21.2506 13.6354Z" fill="white"/>
<path d="M195.101 137H143.53C143.461 137 143.395 136.973 143.346 136.924C143.297 136.875 143.27 136.809 143.27 136.74C143.27 136.671 143.297 136.604 143.346 136.555C143.395 136.507 143.461 136.479 143.53 136.479H195.101C195.17 136.479 195.236 136.507 195.285 136.555C195.334 136.604 195.361 136.671 195.361 136.74C195.361 136.809 195.334 136.875 195.285 136.924C195.236 136.973 195.17 137 195.101 137Z" fill="#CBD5E1"/>
<path d="M171.591 48.2781C171.591 48.2781 170.813 43.9737 169.041 44.488C167.27 45.0023 162.711 45.5284 162.703 43.5013C162.694 41.4742 166.994 39.6825 169.529 39.925C172.064 40.1675 176.374 40.9094 176.137 44.7112C175.947 47.1057 175.207 49.424 173.975 51.4857L171.591 48.2781Z" fill="#334155"/>
</g>
<defs>
<clipPath id="clip0_1630_4637">
<rect width="194.722" height="137" fill="white" transform="translate(0.638847)"/>
</clipPath>
</defs>
</svg>
